<?xml version="1.0" encoding="UTF-8" standalone="no"?>
<!-- Created with Inkscape (http://www.inkscape.org/) -->
<svg
   xmlns:svg="http://www.w3.org/2000/svg"
   xmlns="http://www.w3.org/2000/svg"
   version="1.0"
   width="653.27002"
   height="200.09"
   id="svg1960">
  <defs
     id="defs1962" />
  <g
     transform="translate(-70.81554,-216.6333)"
     id="layer1">
    <path
       d="M 662.43671,219.11965 C 656.86247,216.83365 651.71124,216.56605 645.44996,216.645 L 539.33698,217.22712 C 517.43953,216.11386 495.85401,221.47661 477.19634,232.21749 L 477.21563,232.23958 C 473.87852,234.05849 471.6076,237.60447 471.6076,241.67096 C 471.6076,247.59788 476.41741,252.40418 482.34049,252.40418 C 485.43215,252.40418 488.20753,251.08992 490.16778,249.00055 C 513.49799,236.49638 542.01287,234.09183 568.34901,244.90742 C 615.12761,264.10941 637.56275,317.7956 618.35633,364.57067 C 613.20503,377.11473 605.55555,387.88889 596.24039,396.60316 L 596.32223,396.71842 C 593.13438,398.57814 590.98185,402.02993 590.98185,405.99003 C 590.98185,411.91671 595.79485,416.71931 601.72245,416.71931 C 605.53357,416.71931 608.8809,414.71909 610.78525,411.70881 C 622.13479,401.03853 631.4393,387.8484 637.73387,372.52018 C 638.16774,371.47347 681.6437,265.57567 681.75487,265.29297 C 689.17751,247.21933 680.51127,226.53897 662.43671,219.11965 z "
       style="fill:#f79a10"
       id="path17" />
    <path
       d="M 93.989765,343.93866 C 94.160605,354.57946 103.08997,358.87312 112.70266,358.87312 C 119.73872,358.87312 128.6654,356.12625 128.6654,347.53881 C 128.6654,340.16036 118.53674,337.58069 101.0263,333.80652 C 86.948557,330.71451 72.875507,325.73764 72.875507,310.11607 C 72.875507,287.45824 92.445813,281.62036 111.49984,281.62036 C 130.89929,281.62036 148.75164,288.14113 150.64065,309.94214 L 127.46711,309.94214 C 126.78041,300.50405 119.5685,297.9282 110.81723,297.9282 C 105.32071,297.9282 97.251792,298.95598 97.251792,306.1674 C 97.251792,314.92264 110.98808,316.12142 124.88947,319.38748 C 139.13893,322.64622 153.04537,327.79741 153.04537,344.27989 C 153.04537,367.62497 132.78861,375.17719 112.53185,375.17719 C 91.933709,375.17719 71.851296,367.4539 70.815543,343.93486 L 93.989765,343.93486 L 93.989765,343.93866 z "
       style="fill:#666"
       id="path19" />
    <path
       d="M 203.51347,281.62036 C 231.49745,281.62036 249.5197,300.16198 249.5197,328.48431 C 249.5197,356.63917 231.49745,375.17719 203.51347,375.17719 C 175.70287,375.17719 157.67716,356.63917 157.67716,328.48431 C 157.67716,300.16198 175.70287,281.62036 203.51347,281.62036 z M 203.51347,356.80962 C 220.16285,356.80962 225.14029,342.56149 225.14029,328.48431 C 225.14029,314.23598 220.16285,299.9881 203.51347,299.9881 C 187.0308,299.9881 182.05426,314.23598 182.05426,328.48431 C 182.05426,342.56516 187.0308,356.80962 203.51347,356.80962 z "
       style="fill:#666"
       id="path21" />
    <path
       d="M 338.65704,372.77628 L 315.48317,372.77628 L 315.48317,360.41359 L 314.96681,360.41359 C 308.78389,370.37119 298.14313,375.18115 287.84417,375.18115 C 261.9238,375.18115 255.39912,360.58779 255.39912,338.61247 L 255.39912,284.02506 L 279.77906,284.02506 L 279.77906,334.15147 C 279.77906,348.74509 284.06982,355.95244 295.40048,355.95244 C 308.61676,355.95244 314.28414,348.57429 314.28414,330.54414 L 314.28414,284.02506 L 338.65704,284.02506 L 338.65704,372.77628 L 338.65704,372.77628 z "
       style="fill:#666"
       id="path23" />
    <path
       d="M 346.04336,284.02506 L 369.21297,284.02506 L 369.21297,300.50405 L 369.5571,300.50405 C 374.01935,289.34755 386.03719,281.62036 397.88406,281.62036 C 399.60256,281.62036 401.6617,281.96505 403.20617,282.47798 L 403.20617,305.13942 C 400.97189,304.61981 397.36782,304.2781 394.4543,304.2781 C 376.60057,304.2781 370.41916,317.15325 370.41916,332.77382 L 370.41916,372.7721 L 346.04336,372.7721 L 346.04336,284.02506 z "
       style="fill:#666"
       id="path25" />
    <path
       d="M 463.28877,315.26802 C 461.74229,305.3131 455.38854,299.99151 445.26716,299.99151 C 429.64228,299.99151 424.49108,315.78356 424.49108,328.83291 C 424.49108,341.53397 429.4719,356.81342 444.74787,356.81342 C 456.07867,356.81342 462.60287,349.60555 464.14698,338.79082 L 487.66631,338.79082 C 484.57452,362.30654 468.26738,375.18488 444.9223,375.18488 C 418.14068,375.18488 400.11843,356.30116 400.11843,329.69411 C 400.11843,302.05497 416.59677,281.62415 445.4345,281.62415 C 466.38169,281.62415 485.60655,292.60966 487.15087,315.26802 L 463.28877,315.26802 z "
       style="fill:#666"
       id="path27" />
    <path
       d="M 514.61512,334.32241 C 515.30166,349.77291 522.8582,356.81342 536.41567,356.81342 C 546.20274,356.81342 554.10068,350.80474 555.64098,345.31138 L 577.10065,345.31138 C 570.23104,366.25527 555.64098,375.18115 535.55977,375.18115 C 507.57784,375.18115 490.23852,355.95244 490.23852,328.48847 C 490.23852,301.88069 508.60623,281.62415 535.55977,281.62415 C 565.77346,281.62415 580.3628,307.03221 578.64836,334.32591 L 514.61512,334.32591 L 514.61512,334.32241 z M 554.27161,318.87189 C 552.03749,306.51277 546.71436,299.99151 534.86842,299.99151 C 519.42151,299.99151 514.95628,312.00924 514.61512,318.87189 L 554.27161,318.87189 z "
       style="fill:#666"
       id="path29" />
    <path
       d="M 705.35554,240.80923 L 705.35554,252.34114 L 703.33271,252.34114 L 703.33271,240.80923 L 699.65895,240.80923 L 699.65895,239.00205 L 709.02998,239.00205 L 709.02998,240.80923 L 705.35554,240.80923 L 705.35554,240.80923 z "
       id="path31" />
    <path
       d="M 721.06897,252.34114 L 721.06897,243.42228 L 717.98925,249.92107 L 716.49359,249.92107 L 713.34293,243.42228 L 713.34293,252.34114 L 711.32022,252.34114 L 711.32022,239.00205 L 713.34293,239.00205 L 717.24008,247.30079 L 721.06897,239.00205 L 723.08877,239.00205 L 723.08877,252.34114 L 721.06897,252.34114 L 721.06897,252.34114 z "
       id="path33" />
  </g>
</svg>
